<svg xmlns="http://www.w3.org/2000/svg" shape-rendering="geometricPrecision" text-rendering="geometricPrecision" image-rendering="optimizeQuality" fill-rule="evenodd" clip-rule="evenodd" viewBox="0 0 505 512.44"><path fill="#FDC454" d="M459.235 145.445c20.574 81.948 17.054 159.722-50.124 181.587-37.572 12.149-67.979 7.702-91.629-12.389-32.874-27.929-46.638-77.585-52.596-130.105 93.788-42.039 196.076-92.57 194.349-39.093z"/><path fill="#683800" fill-rule="nonzero" d="M352.951 504.183c-7.553 1.443-14.852-3.512-16.296-11.064-1.443-7.553 3.511-14.853 11.064-16.296l58.674-11.345-25.715-125.769c-1.533-7.524 3.324-14.873 10.849-16.406 7.525-1.534 14.873 3.323 16.406 10.849l25.775 126.042 54.746-10.585c7.553-1.443 14.853 3.511 16.296 11.064 1.443 7.553-3.511 14.852-11.064 16.296l-140.735 27.214z"/><path fill="#FDC454" d="M49.768 145.445c-20.574 81.948-17.054 159.722 50.124 181.587 37.572 12.149 67.979 7.702 91.629-12.389 32.874-27.929 46.638-77.585 52.596-130.105-46.769-55.415-129.566-26.062-194.349-39.093z"/><path fill="#683800" fill-rule="nonzero" d="M239.967 55.838c-.649-3.862-1.946-6.984-3.934-9.298-1.971-2.297-4.864-4.011-8.719-5.097l-76.975-15.178c-4.874-.961-9.697-1.999-13.947-2.911-23.102-4.965-23.207-4.985-35.641 25.944-27.568 68.576-50.146 130.001-53.473 177.587-3.095 44.238 11.171 76.406 55.628 90.874l.406.142c17.187 5.503 32.605 7.254 46.281 5.37l.278-.034c13.239-1.867 25.014-7.248 35.353-16.036 51.967-44.151 53.13-139.552 54.042-214.622.16-13.028.312-25.479.701-36.741zM127.666 342.943L100.88 473.922l56.401 10.908c7.553 1.444 12.507 8.743 11.064 16.296-1.443 7.553-8.743 12.507-16.296 11.064L11.314 484.976C3.761 483.533-1.193 476.233.25 468.68c1.444-7.553 8.743-12.507 16.296-11.063l57.022 11.025 26.84-131.247c-1.01-.302-2.019-.617-3.036-.943l-.496-.146c-55.09-17.926-72.812-57.071-69.062-110.718 3.518-50.296 26.635-113.366 54.848-183.541C101.233-4.155 101.4-4.116 140.438 4.272c3.819.819 8.142 1.753 13.641 2.835l77.769 15.369c8.025 2.12 14.322 5.964 18.992 11.394 4.608 5.356 7.414 12.039 8.548 19.935.067.562.098 1.134.077 1.717-.423 11.765-.576 24.227-.735 37.285-.958 78.998-2.183 179.385-60.912 229.278-13.143 11.168-28.203 18.031-45.213 20.442l-.34.055c-7.82 1.079-16.019 1.204-24.599.361z"/><path fill="#fff" fill-rule="nonzero" d="M202.997 223.128a5.572 5.572 0 0111.033 1.568c-3.116 21.444-10.53 38.562-21.708 51.864-11.213 13.343-26.093 22.721-44.124 28.664a5.58 5.58 0 01-7.042-3.553 5.58 5.58 0 013.552-7.043c16.116-5.311 29.313-13.569 39.107-25.222 9.825-11.692 16.376-26.961 19.182-46.278zM309.011 248.264a5.573 5.573 0 0110.38-4.06c7.147 18.142 17.025 31.502 29.289 40.648 12.209 9.107 26.936 14.124 43.818 15.602a5.582 5.582 0 01-.957 11.122c-18.939-1.655-35.582-7.376-49.536-17.787-13.912-10.377-25.042-25.344-32.994-45.525z"/><path fill="#683800" fill-rule="nonzero" d="M249.622 53.805c1.124-7.896 3.935-14.575 8.539-19.935 4.669-5.43 10.966-9.274 18.994-11.394l77.77-15.369c5.506-1.086 9.818-2.016 13.641-2.835 39.035-8.388 39.204-8.423 57.776 37.775 28.213 70.175 51.329 133.245 54.847 183.541 3.751 53.647-13.974 92.792-69.065 110.718l-.496.146c-20.021 6.414-38.305 8.416-54.888 6.13l-.341-.055c-17.01-2.411-32.071-9.274-45.212-20.442-58.737-49.897-59.958-150.294-60.916-229.295-.156-13.055-.309-25.517-.732-37.268-.021-.583.01-1.155.083-1.717zm23.346-7.265c-1.985 2.31-3.286 5.433-3.931 9.294.388 11.262.541 23.706.697 36.727.913 75.078 2.075 170.489 54.046 214.64 10.339 8.788 22.114 14.169 35.353 16.036l.278.034c13.68 1.888 29.094.133 46.278-5.37l.406-.142c44.456-14.468 58.726-46.636 55.631-90.874-3.327-47.586-25.906-109.011-53.473-177.587-12.431-30.926-12.538-30.909-35.641-25.944-4.254.912-9.083 1.953-13.947 2.911L281.69 41.447c-3.858 1.082-6.748 2.799-8.722 5.093z"/></svg>